<svg xmlns="http://www.w3.org/2000/svg" xmlns:xlink="http://www.w3.org/1999/xlink" width="298.5" height="68.812" viewBox="0 0 298.5 68.812">
  <defs>
    <linearGradient id="linear-gradient" x1="0.5" x2="0.5" y2="1.593" gradientUnits="objectBoundingBox">
      <stop offset="0" stop-color="#ff0080"/>
      <stop offset="1" stop-color="#ff88e3"/>
    </linearGradient>
  </defs>
  <g id="Group_3688" data-name="Group 3688" transform="translate(9965 -10684)">
    <path id="Path_1737" data-name="Path 1737" d="M13.44-46.724H42.78v-5.329H19.565V-89.6H13.44ZM77.877-62.772c0-9.984-6.676-16.722-16.048-16.722S45.536-72.572,45.536-62.955c0,9.678,6.983,16.6,17.457,16.6,5.39,0,9.862-1.838,12.8-5.268l-3.246-3.8a12.121,12.121,0,0,1-9.372,3.92c-6.431,0-11.025-3.8-11.76-9.494H77.755C77.816-61.547,77.877-62.282,77.877-62.772ZM61.829-74.532a10.124,10.124,0,0,1,10.413,9.31H51.416A10.119,10.119,0,0,1,61.829-74.532Zm46.551-4.655L96.988-53.155,85.84-79.187H79.715l14.21,32.464h6l14.21-32.464Zm33.75,0L130.921-53.216,119.59-79.187h-6.125l14.333,32.4-1.041,2.266c-1.593,3.736-3.369,5.023-6.186,5.023a8.306,8.306,0,0,1-5.819-2.389l-2.511,4.41a12.189,12.189,0,0,0,8.33,3c4.961,0,8.7-2.144,11.577-9l15.742-35.71Zm28.6-.306c-5.145,0-9.31,1.9-11.7,5.206v-4.9H153.4v32.464h5.88V-63.445c0-7.044,4.043-10.78,10.29-10.78,5.574,0,8.759,3.124,8.759,9.494v18.008h5.88V-65.405C184.21-74.961,178.637-79.493,170.735-79.493Zm53.9,16.722c0-9.984-6.676-16.722-16.048-16.722S192.3-72.572,192.3-62.955c0,9.678,6.983,16.6,17.457,16.6,5.39,0,9.862-1.838,12.8-5.268l-3.246-3.8a12.121,12.121,0,0,1-9.372,3.92c-6.431,0-11.025-3.8-11.76-9.494h26.338C224.576-61.547,224.637-62.282,224.637-62.772Zm-16.048-11.76A10.124,10.124,0,0,1,219-65.222H198.176A10.119,10.119,0,0,1,208.589-74.532Z" transform="translate(-9891.137 10786.712)"/>
    <path id="Path_1730" data-name="Path 1730" d="M161.578-363.626c-3.541,4.594-6.556,8.374-6.747,8.374a72.312,72.312,0,0,1-6.652-4.115c-3.445-2.249-6.652-4.02-7.082-3.924-.67.144-.766,1.627-.909,14.212-.048,9.762.048,14.26.431,14.691.287.335,5.886,4.115,12.49,8.422l11.963,7.752-1.244,1.1a4.449,4.449,0,0,1-2.106,1.1c-.431,0-4.977-2.728-10.1-6.029-13.112-8.47-13.112-8.422-8.231,6.843,1.914,5.982,3.733,11.2,3.972,11.485.861,1.1,1.866.67,7.848-3.206a63.429,63.429,0,0,1,6.364-3.828,17.3,17.3,0,0,1,3.445,1.914,13.974,13.974,0,0,0,3.78,1.914,13.974,13.974,0,0,0,3.78-1.914,17.3,17.3,0,0,1,3.445-1.914,63.427,63.427,0,0,1,6.364,3.828c5.982,3.876,6.987,4.307,7.848,3.206.239-.287,2.058-5.5,3.972-11.485,3.589-11.2,3.733-12.3,1.771-12.681-.383-.1-4.881,2.584-10,5.838-5.12,3.3-9.666,6.029-10.1,6.029a4.449,4.449,0,0,1-2.106-1.1l-1.244-1.1,11.963-7.752c6.6-4.307,12.2-8.087,12.49-8.422.383-.431.479-4.929.431-14.691-.144-12.585-.239-14.069-.909-14.212-.431-.1-3.637,1.675-7.082,3.924a72.308,72.308,0,0,1-6.652,4.115c-.191,0-3.206-3.78-6.747-8.374C172.2-368.6,169.282-372,168.8-372S165.406-368.6,161.578-363.626Zm13.686,5.264c3.3,4.355,6.364,7.9,6.747,7.9a30.224,30.224,0,0,0,5.5-3.11,30.227,30.227,0,0,1,5.5-3.11c.574,0,.67,1.483.574,10.145l-.144,10.145-11.915,7.8c-6.556,4.307-12.3,7.8-12.729,7.8s-6.173-3.493-12.729-7.8l-11.915-7.8-.144-10.145c-.1-8.709,0-10.145.574-10.145a28.632,28.632,0,0,1,5.5,3.11,27.438,27.438,0,0,0,5.455,3.11c.383,0,3.445-3.541,6.8-7.9a93.606,93.606,0,0,1,6.46-7.9A93.6,93.6,0,0,1,175.264-358.362ZM152.2-317.113l5.742,3.685-1.292,1c-2.536,2.01-6.556,4.211-6.939,3.78a111.1,111.1,0,0,1-3.876-11.868C145.834-321.132,146.6-320.7,152.2-317.113Zm39.575-3.4a111.105,111.105,0,0,1-3.876,11.868c-.383.431-4.4-1.771-6.939-3.78l-1.292-1,5.695-3.685C190.864-320.654,191.773-321.132,191.773-320.51Zm-20.864,6.077,1.388,1.148-1.483,1a5.364,5.364,0,0,1-2.01,1.053,5.364,5.364,0,0,1-2.01-1.053l-1.483-1,1.388-1.148C168.421-315.82,169.187-315.82,170.909-314.433Z" transform="translate(-10105.176 11056)" fill="url(#linear-gradient)"/>
  </g>
</svg>
